<?xml version="1.0" encoding="utf-8"?>
<!-- Generator: Adobe Illustrator 25.2.3, SVG Export Plug-In . SVG Version: 6.00 Build 0)  -->
<svg version="1.1" id="f1b25b43-9e03-45b3-af71-047f5bd7d8f3"
	 xmlns="http://www.w3.org/2000/svg" xmlns:xlink="http://www.w3.org/1999/xlink" x="0px" y="0px" viewBox="0 0 850.5 740.8"
	 style="enable-background:new 0 0 850.5 740.8;" xml:space="preserve">
<style type="text/css">
	.st0{fill:#2F2E41;}
	.st1{fill:#E6E6E6;}
	.st2{fill:#FFB6B6;}
	.st3{fill:#CACACA;}
	.st4{fill:#3F3D56;}
	.st5{fill:#FFFFFF;}
	.st6{fill:#F7EBEC;}
</style>
<path class="st0" d="M363.8,655.9l78.4-60l156.2,20.7l5.2,31.4c-5.9,4.1-11.8,8-17.8,11.9c-72.4,46.9-152.2,80.8-215.6,80.8
	c-2.7,0-5.3,0-8-0.1L363.8,655.9z"/>
<path class="st1" d="M352,258.5v22.3c0,1.4,1.2,2.6,2.6,2.6h22.3c0,0,0,0,0,0c1.4,0,2.6-1.2,2.6-2.6v-22.3c0-1.4-1.2-2.6-2.6-2.6
	h-22.3C353.2,256,352.1,257.1,352,258.5z"/>
<path class="st1" d="M352,296.5v22.3c0,1.4,1.2,2.6,2.6,2.6h22.3c0,0,0,0,0,0c1.4,0,2.6-1.2,2.6-2.6v-22.3c0-1.4-1.2-2.6-2.6-2.6
	h-22.3c-1.3,0-2.3,0.9-2.6,2.1C352.1,296.2,352,296.3,352,296.5z"/>
<path class="st1" d="M352,334.4v22.3c0,1.4,1.2,2.6,2.6,2.6h22.3c0,0,0,0,0,0c1.4,0,2.6-1.2,2.6-2.6v-22.3c0,0,0,0,0,0
	c0-1.4-1.2-2.6-2.6-2.6h-22.3c-0.3,0-0.7,0.1-1,0.2C352.7,332.5,352.1,333.4,352,334.4z"/>
<path class="st1" d="M305.3,334.4v22.3c0,1.4,1.2,2.6,2.6,2.6h22.3c0,0,0,0,0,0c1.4,0,2.6-1.2,2.6-2.6v-22.3c0,0,0,0,0,0
	c0-1.4-1.2-2.6-2.6-2.6h-22.3C306.5,331.9,305.3,333,305.3,334.4z"/>
<polygon class="st0" points="445.7,660 446.3,660.1 445.7,660.1 "/>
<circle id="b6132315-04e2-4cdb-a713-107c9cd58b0b" class="st2" cx="498.9" cy="176.7" r="68.3"/>
<path id="f4304bdd-ba2d-4fff-b404-410205410c5d" class="st0" d="M431.9,189.4c0,0,5.4-8.4,9-42.6s51.6-7.4,94.5-4.3
	s25.3,61.7,25.3,61.7s3.6-3.1,14.3-31.1c10.7-27.9,0-59,0-59c-3.2-14.9-17.9-9.3-17.9-9.3c-10.2-21.1-28.8-21.1-28.8-21.1
	c-34.2-24.8-67.7,5.6-67.7,5.6c-39.3,3.1-21.4,37.3-21.4,37.3C398,140.6,431.9,189.4,431.9,189.4z"/>
<path class="st3" d="M322.4,345l10.3-4.9l20.1-9.6l19-9.1l7.5-3.6l0.1,0l10.5-5l46-42.7l27.6-0.2l56.3-0.4l27.1,35.2l65.4,22.2
	l6.1,2.1l-1.5,31.4l-1.7,36.1l-2.6,53.1l-0.3,5.3l-0.6,12.6l-0.6,13.2l0,0.7L609,525l-0.1,2.2l-0.1,1.5l-0.5,11.4l0,0.8l-1.7,34.4
	l1,2.3l7.1,16.6c0,0-5.7,5.1-8.2,8c-2.6,2.9,3.6,26.8,3.6,26.8l1.8,13.4c-8.5,6.1-17.2,11.9-26,17.6H368.2l0-0.1l-5.3-30.5l-8.1-8.1
	l13.6-13.6l-4.1-30.1l-4.7-34.5l-0.6-3l-1.9-10.1l-0.2-1.3l-0.7-3.6l-1.8-9.7l-6.4-34l-2.9-15.3l-2.1-11.2l-1-5.3l-17.1-90.2
	l-2.5-13l-0.2-1.2L322.4,345z"/>
<path class="st2" d="M512.6,557.6c-13.2-5-21.2-18.4-19.4-32.3c2.1-16.7,17.4-28.5,34.1-26.4l95.5-20.8l37,41.9l-106.6,15.1
	c-0.3,1.8-0.8,3.5-1.5,5.1C545.8,555.8,528.2,563.6,512.6,557.6L512.6,557.6z"/>
<path class="st3" d="M557.4,491.9l0.1,0.4l5.9,36.4l0.7,4.3c0,0.2,0.1,0.4,0.1,0.6c1.4,6.9,7.9,11.6,14.8,10.7l29.1-3.4l63-7.4
	c2.9-0.3,5.8-0.9,8.6-1.7c30.8-8.5,48.8-40.2,40.4-71l-22-80.1l-10.7-38.9c-3.5-12.9-12.9-23.4-25.3-28.4c-0.2-0.1-0.5-0.2-0.8-0.3
	c-17.6-6.7-37.5-1.2-49,13.6c-6.4,8.2-9.6,18.5-9.1,28.9c0.2,3.8,0.9,7.5,2.1,11l9.8,29.6l15.1,45.6c0.8,2.4,1.1,5,0.9,7.5
	c-0.2,2.8-1.1,5.5-2.5,7.9c-2.7,4.7-7.3,8-12.5,9.1l-4.5,0.9l-43.7,9.1c-3.1,0.6-5.9,2.4-7.9,4.9
	C557.8,484.4,556.8,488.2,557.4,491.9z"/>
<path class="st2" d="M444.8,558.7c13.7-3.1,23.5-15.2,23.8-29.3c0.2-16.8-13.2-30.6-30-30.9l-91.6-34l-42.6,36.3l103.4,30
	c0.1,1.8,0.3,3.6,0.7,5.3C412.2,552.4,428.5,562.5,444.8,558.7L444.8,558.7z"/>
<path class="st3" d="M253,433.7c-1.2,2.7-2.1,5.4-2.9,8.3c-8.1,30.8,10.2,62.5,41.1,70.6l61.2,16.1l4.8,1.3l23.7,6.2
	c6.4,1.7,13.1-1.5,15.8-7.5c0.2-0.3,0.3-0.7,0.4-1c0.1-0.2,0.1-0.4,0.2-0.5l12.3-39.4l0.1-0.4c2.2-6.9-1.5-14.3-8.3-16.8l-43.9-15.8
	l-2.4-0.9c-0.7-0.2-1.3-0.5-2-0.9c-9.3-4.6-13.2-16-8.5-25.3l34.7-69.8l0.6-1.2c6.1-12.3,5.9-26.7-0.4-38.9c0,0,0-0.1-0.1-0.1
	c-5.6-10.8-15.6-18.7-27.3-21.7c-6.4-1.6-13-1.8-19.5-0.4c-0.5,0.1-0.9,0.2-1.4,0.3c-3,0.7-6,1.8-8.8,3.2
	c-9.1,4.5-16.2,12.1-20.3,21.4L253,433.7L253,433.7z"/>
<path class="st4" d="M44.9,528.7c16.8,38,40.1,72.8,68.8,102.7c3.8,4,7.8,7.9,11.8,11.7c6.2,5.9,12.5,11.5,19.1,16.9
	c23.6,19.4,49.7,35.8,77.5,48.5l0.7-114.5c0-9.1,7.4-16.4,16.4-16.4h452c16.3-15.3,31.6-31.6,45.8-48.9H44.9z"/>
<path class="st5" d="M221.7,631.4v11.7h-96.2c-4-3.8-8-7.7-11.8-11.7H221.7z"/>
<path class="st4" d="M322.4,258.6v196.2h338.9l0-196.2c0-3.1-2.5-5.5-5.5-5.5L328,253c-2,0-3.9,1.1-4.9,2.9
	C322.6,256.8,322.4,257.7,322.4,258.6z"/>
<path class="st4" d="M321.8,449.5v24.2c0,0,0,0,0,0c0,4.2,3.4,7.6,7.6,7.6h125.1v47.8h-1.7c0,0,0,0,0,0c-0.5,0-1,0.4-1,1v3.3
	c0,0,0,0,0,0c0,0.5,0.4,1,1,1h77.7c0,0,0,0,0,0c0.5,0,1-0.4,1-1v-3.3c0,0,0,0,0,0c0-0.5-0.4-1-1-1h-1.7v-47.8H654c0,0,0,0,0,0
	c4.2,0,7.6-3.4,7.6-7.6v-24.2H321.8z"/>
<circle class="st6" cx="495.8" cy="348.7" r="31.3"/>
<path class="st6" d="M488.8,96.4c6.6-0.5,13.2-0.3,19.8,0.6c15.7,2,29.5,6.2,40.7,12.7c21.4,12.4,33.8,33.1,33.8,63.3
	c0,7.1-0.9,14.2-2.7,21.1l-4.8-1.3c1.7-6.5,2.5-13.2,2.5-19.9c0-34.5-22.6-49-47-56.5c-6.2-1.9-12.5-3.3-18.5-4.6
	c-5.4-1.1-10.9-1.6-16.4-1.6c-37.7,0-75.1,24.8-75.1,62.6h-5C416.1,132.8,445.4,99.5,488.8,96.4z"/>
<path class="st6" d="M409.8,186.6c0.2,0.4,0.5,0.8,0.8,1.2c2.5,3.5,6.4,5.9,10.7,6.4l3.5,0.5c0.3,0,0.6,0.1,0.9,0.1
	c0.4,0,0.8,0,1.2-0.1c2.8-0.5,4.9-2.8,5.3-5.6l4.5-33.5c0.2-1.7-0.2-3.5-1.3-4.9c-1.1-1.4-2.6-2.3-4.3-2.5l-3.1-0.4
	c-4.8-0.8-9.7,0.7-13.2,4c-2.7,2.5-4.5,5.9-5,9.6l-2,14.6C407.2,179.5,407.9,183.3,409.8,186.6z"/>
<path class="st5" d="M426.9,194.6c2.8-0.5,4.9-2.8,5.3-5.6l4.5-33.5c0.2-1.7-0.2-3.5-1.3-4.9c-0.6-0.8-1.4-1.5-2.3-1.9L426.9,194.6z
	"/>
<path class="st4" d="M409.8,186.6c0.2-0.5,0.3-1,0.4-1.6l4.5-33.4c-2.7,2.5-4.5,5.9-5,9.6l-2,14.6
	C407.2,179.5,407.9,183.3,409.8,186.6z"/>
<ellipse transform="matrix(0.1344 -0.9909 0.9909 0.1344 189.5308 575.6257)" class="st4" cx="424.3" cy="179.3" rx="7" ry="2.5"/>
<ellipse transform="matrix(0.1344 -0.9909 0.9909 0.1344 209.9641 563.0182)" class="st4" cx="427.3" cy="161.3" rx="7" ry="2.5"/>
<ellipse transform="matrix(0.1344 -0.9909 0.9909 0.1344 186.5817 550.2497)" class="st4" cx="408.3" cy="168.3" rx="7" ry="2.5"/>
<path class="st4" d="M486.1,100.2c0.3-1.6,1.3-3,2.7-3.8c6.6-0.5,13.2-0.3,19.8,0.6c15.7,2,29.5,6.2,40.7,12.7
	c-1.4,3.9-8.5,6.4-18.2,6.8c-6.2-1.9-12.5-3.3-18.5-4.6c-5.4-1.1-10.9-1.6-16.4-1.6C489.6,107.4,485.6,103.7,486.1,100.2z"/>
<path class="st6" d="M562.4,214c0.6,0.5,1.4,0.8,2.2,1l3,0.7c3.9,0.9,8,0.3,11.4-1.8c0.5-0.3,0.9-0.6,1.4-1c2.7-2.2,4.6-5.2,5.3-8.6
	l3.5-14.4c1.9-8-3-16-11-18l-3-0.7c-0.5-0.1-0.9-0.2-1.4-0.2c-0.3,0-0.7,0-1,0.1c-2.4,0.4-4.3,2.2-4.9,4.6l-7.7,32
	C559.5,210.1,560.4,212.5,562.4,214z"/>
<ellipse transform="matrix(0.234 -0.9722 0.9722 0.234 253.1254 711.1399)" class="st4" cx="577.8" cy="194.9" rx="7" ry="2.5"/>
<ellipse transform="matrix(0.234 -0.9722 0.9722 0.234 257.869 723.1605)" class="st4" cx="587.8" cy="197.9" rx="7" ry="2.5"/>
<path class="st5" d="M562.1,214.4l10.5-43.7c-2.6,0.4-4.7,2.4-5.3,4.9l-7.7,32C559,210.1,559.9,212.8,562.1,214.4z"/>
<path class="st4" d="M580.2,212.9c2.7-2.2,4.6-5.2,5.3-8.6l3.5-14.4c0.7-2.9,0.5-6-0.6-8.8c-0.6,0.7-1,1.6-1.2,2.5L580.2,212.9z"/>
<path class="st6" d="M108.7,181.1H86.4c-1.4,0-2.6,1.2-2.6,2.6V206c0,1.4,1.2,2.6,2.6,2.6h22.3c1.4,0,2.6-1.2,2.6-2.6v-22.3
	C111.3,182.3,110.1,181.1,108.7,181.1z"/>
<path class="st6" d="M108.7,219.1H86.4c-1.4,0-2.6,1.2-2.6,2.6v22.3c0,1.4,1.2,2.6,2.6,2.6h22.3c1.4,0,2.6-1.2,2.6-2.6v-22.3
	C111.3,220.2,110.1,219.1,108.7,219.1z"/>
<path class="st1" d="M108.7,257H86.4c-1.4,0-2.6,1.2-2.6,2.6v22.3c0,1.4,1.2,2.6,2.6,2.6c0,0,0,0,0,0h22.3c1.4,0,2.6-1.2,2.6-2.6
	v-22.3C111.3,258.2,110.1,257,108.7,257z"/>
<path class="st6" d="M155.5,181.1h-22.3c-1.4,0-2.6,1.2-2.6,2.6V206c0,1.4,1.2,2.6,2.6,2.6h22.3c1.4,0,2.6-1.2,2.6-2.6v-22.3
	C158.1,182.3,156.9,181.1,155.5,181.1z"/>
<path class="st6" d="M155.5,219.1h-22.3c-1.4,0-2.6,1.2-2.6,2.6v22.3c0,1.4,1.2,2.6,2.6,2.6h22.3c1.4,0,2.6-1.2,2.6-2.6v-22.3
	C158.1,220.2,156.9,219.1,155.5,219.1z"/>
<path class="st1" d="M155.5,257h-22.3c-1.4,0-2.6,1.2-2.6,2.6v22.3c0,1.4,1.2,2.6,2.6,2.6c0,0,0,0,0,0h22.3c1.4,0,2.6-1.2,2.6-2.6
	v-22.3C158.1,258.2,156.9,257,155.5,257z"/>
<path class="st1" d="M202.2,181.1H180c-1.4,0-2.6,1.2-2.6,2.6V206c0,1.4,1.2,2.6,2.6,2.6h22.3c1.4,0,2.6-1.2,2.6-2.6v-22.3
	C204.8,182.3,203.7,181.1,202.2,181.1z"/>
<path class="st6" d="M202.2,219.1H180c-1.4,0-2.6,1.2-2.6,2.6v22.3c0,1.4,1.2,2.6,2.6,2.6h22.3c1.4,0,2.6-1.2,2.6-2.6v-22.3
	C204.8,220.2,203.7,219.1,202.2,219.1z"/>
<path class="st6" d="M202.2,257H180c-1.4,0-2.6,1.2-2.6,2.6v22.3c0,1.4,1.2,2.6,2.6,2.6c0,0,0,0,0,0h22.3c1.4,0,2.6-1.2,2.6-2.6
	v-22.3C204.8,258.2,203.7,257,202.2,257z"/>
<path class="st1" d="M249,181.1h-22.3c-1.4,0-2.6,1.2-2.6,2.6V206c0,1.4,1.2,2.6,2.6,2.6H249c1.4,0,2.6-1.2,2.6-2.6v-22.3
	C251.6,182.3,250.4,181.1,249,181.1z"/>
<path class="st1" d="M249,219.1h-22.3c-1.4,0-2.6,1.2-2.6,2.6v22.3c0,1.4,1.2,2.6,2.6,2.6H249c1.4,0,2.6-1.2,2.6-2.6v-22.3
	C251.6,220.2,250.4,219.1,249,219.1z"/>
<path class="st6" d="M249,257h-22.3c-1.4,0-2.6,1.2-2.6,2.6v22.3c0,1.4,1.2,2.6,2.6,2.6c0,0,0,0,0,0H249c1.4,0,2.6-1.2,2.6-2.6
	v-22.3C251.6,258.2,250.4,257,249,257z"/>
</svg>
